ply
format ascii 1.0
element vertex 784
property float x
property float y
property float z
end_header
-2.3221064 -1.9314281 -0.3514336
-2.0788479 -2.2216709 0.2625181
-2.4656584 -1.9033957 0.5620593
-2.3317566 -2.3142898 -0.5286868
-2.3386290 -2.2465830 -0.1551456
-2.2805336 -2.3716447 0.1975826
-2.2463541 -2.3575060 0.5203142
-2.4286489 -2.3715067 0.7159281
-2.3830726 -2.3134923 -0.8147103
-2.3635519 -2.1786830 -0.4630228
-2.4150231 -2.1518447 -0.2505445
-2.3376162 -2.1020596 0.1356914
-2.4230645 -2.3105612 0.4376351
-2.3515112 -2.2831125 0.6324022
-2.1735115 -2.0663118 -0.6655152
-2.1929801 -2.0683191 -0.4708570
-2.3445289 -1.9238544 -0.2854194
-2.3325481 -2.0613599 0.0864442
-2.4054551 -2.0374513 0.3456638
-2.1945944 -2.1469972 0.5868104
-2.0918775 -2.0100935 -0.6352478
-2.1670799 -1.9578068 -0.3983039
-2.1518645 -1.9060599 -0.1601932
-2.1452332 -1.9142060 -0.0093607
-2.1867485 -1.8815548 0.3007544
-2.1166954 -2.0048411 0.5643908
-2.0551343 -1.8035487 -0.3718981
-2.0842450 -1.8050826 -0.1524440
-2.0730560 -1.8021013 0.0213407
-2.0437624 -1.7253524 0.2593195
-2.0146260 -1.8071631 0.5131819
-2.3646948 -1.9312509 -1.0376296
-2.2045972 -1.4893892 -0.2094872
-2.0894508 -2.2449753 -0.2005569
-2.2128158 -1.7165346 0.1985061
-2.1832533 -2.2636731 -0.8738820
-2.3848932 -2.1937785 -0.5222028
-2.3082337 -2.3677948 -0.1949710
-2.2001877 -2.3502467 -0.0227791
-2.2417040 -2.3616776 0.1937590
-2.3438771 -2.2131212 0.9802733
-2.3084276 -2.0695937 0.8766735
-2.1784546 -2.3640988 -1.1357445
-2.1226656 -2.3799055 -0.9888059
-2.1895676 -2.4328287 -0.6952943
-2.1314201 -2.4579139 -0.3398353
-2.1197224 -2.3256562 0.0231873
-2.1801643 -2.3648410 0.5906417
-2.3684762 -2.3744144 0.9064791
-2.3189845 -2.4405708 1.1054667
-2.0774024 -2.1967947 -1.1017706
-2.1355855 -2.2148778 -0.8794971
-1.9848365 -2.2336245 -0.4904067
-2.0276437 -2.1760952 -0.1475089
-2.0508621 -2.1402977 0.0541433
-2.0190005 -2.1489544 0.3478791
-2.0792112 -2.2712669 0.7143727
-2.1858602 -2.2829258 0.9320863
-1.9831508 -2.2748890 1.0828222
-1.9382244 -2.1236382 -0.9627712
-2.0240607 -2.0610509 -0.7723162
-1.9503443 -2.0307810 -0.4632483
-1.9574656 -2.0355446 -0.1743576
-1.9814234 -2.0559523 0.0652616
-1.9487572 -2.1017532 0.3408407
-1.9944065 -2.0759857 0.6377130
-1.9548295 -2.1383779 0.8595979
-1.9041657 -2.1685848 0.9848565
-1.8613780 -2.0034633 -0.8847060
-1.9404190 -1.9162722 -0.7089354
-1.8636132 -1.9240881 -0.4461523
-1.9103426 -1.9014574 -0.1752736
-1.9257467 -1.9182395 0.0530362
-1.8425910 -1.9004675 0.3028104
-1.9187886 -1.9350568 0.5878140
-1.9048150 -1.9969500 0.7923997
-1.8813591 -1.7851901 -0.6237836
-1.8834710 -1.7165209 -0.4111647
-1.8864889 -1.6961602 -0.1686852
-1.8953382 -1.7082418 0.0469874
-1.8854072 -1.7089157 0.2960754
-1.8716850 -1.7566099 0.5332327
-1.8222984 -1.8037553 0.7144750
-1.7941887 -1.6314902 -0.5704020
-1.8168687 -1.6122762 -0.3863913
-1.8694996 -1.6098623 -0.1635089
-1.8565837 -1.5943369 0.0588114
-1.8335254 -1.5878472 0.2711620
-1.8131762 -1.6235335 0.4812264
-1.7963390 -1.4368182 -0.1520331
-1.7828802 -1.4483831 0.0555863
-2.0706668 -2.3954871 -0.5548370
-2.4323173 -2.2754614 0.2143746
-1.9645473 -2.4111660 0.9445685
-2.3897107 -2.0271323 -1.4535720
-2.1929805 -2.1157019 -2.0090611
-2.0051646 -2.2556322 -0.3358397
-1.9163431 -2.3946722 0.3206068
-2.1254051 -2.4555943 0.7527667
-1.9165236 -2.3971558 1.2957116
-2.4503372 -1.7601614 1.3802748
-1.8673275 -2.2412090 -1.2288853
-1.9269165 -2.3504307 -0.9179572
-1.7721820 -2.4255111 -0.5422705
-1.7310024 -2.3760118 -0.0785049
-1.8282393 -2.4088836 -0.0088987
-2.0072956 -2.3742461 0.3253982
-1.8311145 -2.3738921 0.4853037
-2.3463550 -2.3734589 1.4706025
-1.9323924 -2.3457980 -1.1464239
-1.8534628 -2.3043153 -0.8832119
-1.9063060 -2.3131175 -0.5725772
-1.8023384 -2.2875547 -0.2588671
-1.7883432 -2.2644324 0.1517778
-1.8506917 -2.1602800 0.4708621
-1.8821626 -2.3074207 0.7980759
-1.8407748 -2.4334998 1.1459241
-2.0165083 -2.3798940 1.5518041
-1.6380900 -2.3600085 -1.3237751
-1.8152341 -2.2205603 -1.1310184
-1.6940008 -2.1395671 -0.7204368
-1.7110660 -2.1929247 -0.4169915
-1.6991063 -2.2034428 -0.2446267
-1.7524253 -2.1698065 0.0645945
-1.7227657 -2.1839223 0.2881767
-1.7441057 -2.2277620 0.6429970
-1.7373067 -2.3230019 0.8417196
-1.7996098 -2.2284780 1.1623272
-1.6011081 -2.1494501 -1.1982197
-1.7550616 -2.0695662 -1.0309448
-1.7239537 -2.0788903 -0.7144083
-1.7259458 -2.0452507 -0.4225512
-1.7037677 -2.0129275 -0.1795484
-1.7285980 -1.9831381 0.0566255
-1.6954482 -2.0283563 0.3442578
-1.7185798 -2.0407617 0.6095594
-1.7158043 -2.1079910 0.8077744
-1.6835043 -2.1683993 1.0976262
-1.6165258 -2.0238526 -1.0662185
-1.6894324 -1.9354000 -0.9428924
-1.6372339 -1.8868465 -0.6462539
-1.6826003 -1.9018233 -0.4318583
-1.6549455 -1.9015616 -0.1970412
-1.6903553 -1.8707640 0.0725148
-1.6711801 -1.8631151 0.2901973
-1.6679705 -1.9463009 0.5356967
-1.6888981 -1.9482633 0.8123749
-1.6544160 -1.9920107 1.0119472
-1.6209496 -1.8051090 -0.8849550
-1.6459526 -1.7416317 -0.6499894
-1.6433274 -1.7395610 -0.3915382
-1.6607481 -1.7313181 -0.1719366
-1.6560328 -1.7258118 0.0360834
-1.6186019 -1.7516286 0.2908771
-1.6430410 -1.7469803 0.5397887
-1.6491044 -1.7436281 0.7547942
-1.5996889 -1.8121338 0.9248312
-1.5714060 -1.6342337 -0.7960793
-1.6045022 -1.5714052 -0.5987366
-1.6508261 -1.5668123 -0.4351279
-1.6112659 -1.5842551 -0.1751435
-1.6434369 -1.5653768 0.0784704
-1.6414001 -1.5369543 0.2882791
-1.6461309 -1.5637579 0.5148309
-1.6027927 -1.6302425 0.7152622
-1.5891404 -1.4068049 -0.3832846
-1.5881487 -1.3642614 -0.1631287
-1.6063390 -1.3834181 0.0621727
-1.5932323 -1.4103348 0.2691662
-1.5858415 -1.4229466 0.4645650
-1.8022455 -2.3683925 -0.7915961
-1.8081237 -2.3703866 -0.4195520
-1.6745522 -2.3969378 0.1303556
-1.5422512 -2.3691437 0.3838613
-1.6806935 -2.3567989 1.0530499
-1.9754359 -2.0045087 -1.7274263
-2.3382354 -2.2249014 -2.2397978
-1.4396054 -2.3348844 -0.5113080
-1.5078045 -2.3539097 -0.1031364
-1.6489118 -2.3276711 0.2901796
-1.7654268 -2.3917127 0.6126296
-1.4302281 -2.3597884 0.6880754
-1.9434630 -1.8478776 1.9607024
-1.5003853 -2.2511547 -1.5581042
-1.5449265 -2.3805258 -0.7911211
-1.5083988 -2.3830783 -0.5022122
-1.5271428 -2.4595757 -0.2860957
-1.4776766 -2.4022150 -0.0142660
-1.4000883 -2.3793421 0.2578744
-1.4961535 -2.4094269 0.9108774
-1.2450398 -2.3593762 1.1349136
-2.1240959 -2.2822556 1.5493991
-1.4894229 -2.3159757 -1.5528786
-1.6685282 -2.3521185 -1.2680084
-1.5749545 -2.2881837 -0.8703017
-1.6080257 -2.1589792 -0.6334936
-1.5374548 -2.1723323 -0.2123395
-1.5120924 -2.1714933 0.1247154
-1.4359393 -2.2154570 0.4169696
-1.5729481 -2.2904418 0.7432801
-1.5281496 -2.4041185 1.0677675
-1.3361739 -2.3918877 1.2594194
-1.4081453 -2.2760444 -1.3573129
-1.4990634 -2.2368753 -1.0015855
-1.3988562 -2.2197440 -0.7426776
-1.4761314 -2.1510935 -0.4697023
-1.4347711 -2.2099912 -0.2165826
-1.4522790 -2.0784888 0.0064502
-1.4627920 -2.1243329 0.2992786
-1.4859411 -2.1932819 0.5953220
-1.4717133 -2.1913671 0.9224446
-1.6698859 -2.2969129 1.2529078
-1.4772099 -2.3318253 1.4802798
-1.4042966 -2.1912558 -1.2848141
-1.4559916 -2.0458727 -0.9903346
-1.3979383 -2.0573080 -0.7465093
-1.4594671 -1.9867263 -0.4618502
-1.4638467 -1.9538395 -0.1828577
-1.4796075 -1.9968377 0.0590327
-1.4229368 -1.9682238 0.3659487
-1.4857402 -1.9992458 0.6109553
-1.4341836 -2.1060541 0.8681731
-1.5126224 -2.0952518 1.0666566
-1.4717665 -2.1083887 1.2741331
-1.3815743 -2.0087495 -1.1599054
-1.4362855 -1.9345882 -0.8814425
-1.4139054 -1.9084972 -0.6929916
-1.4448837 -1.8642138 -0.4450846
-1.4327179 -1.8766310 -0.1881010
-1.4245495 -1.8224527 0.0526476
-1.4256923 -1.8693808 0.2974986
-1.4510051 -1.8977793 0.5588580
-1.4183218 -1.9224577 0.7930103
-1.4502057 -1.9273231 1.0533299
-1.3852482 -2.0042949 1.1842626
-1.3660470 -1.8289332 -1.0498345
-1.4027842 -1.7335662 -0.8851315
-1.3906045 -1.7391285 -0.6505991
-1.4059099 -1.6846187 -0.4112094
-1.4141992 -1.6782985 -0.1875702
-1.4306203 -1.6925666 0.0586813
-1.4024791 -1.6888899 0.3097833
-1.3978667 -1.7149489 0.5150461
-1.4189701 -1.7716818 0.7456436
-1.3795722 -1.7770088 0.9705259
-1.3763463 -1.6158557 -0.8165902
-1.4173799 -1.5642824 -0.6506433
-1.3987323 -1.5921813 -0.4031064
-1.3843833 -1.5460780 -0.1714893
-1.3912268 -1.5305755 0.0547124
-1.3990548 -1.5563256 0.2766573
-1.4047822 -1.5833993 0.5157880
-1.4084307 -1.5744895 0.7476091
-1.3686831 -1.6417109 0.9107677
-1.3718885 -1.4088111 -0.5883226
-1.3792024 -1.3626904 -0.3838582
-1.4044082 -1.3667936 -0.1828950
-1.4069074 -1.3576465 0.0540318
-1.3989184 -1.3677328 0.2885228
-1.3709538 -1.3694428 0.4829786
-1.3677804 -1.4321024 0.6858925
-1.3649287 -1.2317561 -0.1595552
-1.3658917 -1.2225778 0.0529065
-1.3676186 -1.2417426 0.2625227
-1.5463824 -2.4329495 -1.0128965
-1.4022425 -2.3926051 -0.7973375
-1.3238912 -2.3432460 -0.3294987
-1.3068622 -2.3226597 -0.0049555
-1.5454320 -2.4403737 0.5360193
-1.3532760 -2.2584586 1.4112023
-1.4718969 -1.4977180 -1.8103819
-1.3606654 -2.3126137 -1.1306624
-1.0637597 -2.3983335 -0.4665202
-1.1006219 -2.4153752 -0.0923271
-1.2908150 -2.4361563 0.2053616
-1.1366044 -2.3917091 0.4586977
-1.2341670 -2.3568029 0.8085346
-1.9731604 -2.1664894 1.4602157
-1.6127687 -2.2847040 1.8133193
-1.3622786 -2.1818948 -1.8111801
-1.1402229 -2.4442930 -1.3641478
-1.1288636 -2.4151409 -0.8257116
-1.2647682 -2.4236887 -0.5472397
-1.2223794 -2.4117062 -0.2280619
-1.1732209 -2.3239548 0.0349693
-1.1122853 -2.3659618 0.2774684
-1.2817898 -2.3796175 0.5745808
-1.3004715 -2.4065025 0.8635486
-1.4070305 -2.1204286 1.9103863
-1.2179414 -2.2706854 -1.5114419
-1.2653339 -2.3764615 -1.2167373
-1.2273922 -2.2508078 -0.8615335
-1.2257142 -2.2052038 -0.5322499
-1.2472942 -2.1666703 -0.2157448
-1.2858560 -2.1994529 0.1372746
-1.2438703 -2.2704382 0.4490032
-1.2618248 -2.1936574 0.6817316
-1.1757344 -2.3152492 1.0520818
-1.3742841 -2.1083105 1.3292123
-1.2088410 -2.3906322 1.6365799
-1.2041382 -2.2537768 -1.4044999
-1.1614749 -2.2065494 -1.0585250
-1.2161798 -2.2004750 -0.7257646
-1.1707463 -2.2162497 -0.4512703
-1.1979532 -2.0851407 -0.2280769
-1.1937069 -2.1078732 0.0376735
-1.1899550 -2.0956154 0.3133596
-1.1639001 -2.1617830 0.5646406
-1.1574275 -2.1938255 0.8135678
-1.1306505 -2.2615950 1.2048811
-1.1608708 -2.4074070 1.4967892
-1.1729351 -2.1764693 -1.3065776
-1.1838208 -2.0711534 -1.0059751
-1.1886355 -2.0257945 -0.7246497
-1.1865721 -1.9561515 -0.4868691
-1.1852608 -1.9678684 -0.1916853
-1.1997181 -1.9563547 0.0686362
-1.2043527 -1.9992753 0.3583931
-1.2285851 -1.9831713 0.5754765
-1.1949539 -2.0408034 0.8636616
-1.2012050 -2.0424163 1.0499470
-1.1163908 -2.1354518 1.3455105
-1.1549712 -1.9860504 -1.1630943
-1.1769162 -1.9053924 -0.9078319
-1.1829370 -1.9364550 -0.6766855
-1.1872455 -1.8868449 -0.4423415
-1.1779484 -1.7980363 -0.1722597
-1.1852418 -1.8228272 0.0707101
-1.1711684 -1.8411976 0.2878730
-1.1841148 -1.8503444 0.5509192
-1.1712362 -1.9183786 0.7917496
-1.2049750 -1.9124975 1.0456574
-1.1656991 -2.0105722 1.2170539
-1.1584324 -1.8256646 -1.0656326
-1.1699278 -1.7239960 -0.8895593
-1.1707828 -1.7285604 -0.6536197
-1.1772560 -1.6862959 -0.4151920
-1.1911904 -1.7081872 -0.1943496
-1.1771529 -1.6928816 0.0591981
-1.1895070 -1.7098069 0.2967749
-1.1986904 -1.7083479 0.5231737
-1.1802958 -1.7534593 0.7645081
-1.1969180 -1.7632306 0.9798900
-1.1647964 -1.6101164 -0.8548206
-1.1879400 -1.5745252 -0.6260900
-1.1721740 -1.5526214 -0.4017448
-1.1687942 -1.5301969 -0.1650495
-1.1766136 -1.5191455 0.0753078
-1.1679581 -1.5345373 0.2722745
-1.1607560 -1.5511196 0.5007285
-1.1720798 -1.5609312 0.7508613
-1.1700310 -1.6424398 0.9415634
-1.1540742 -1.4507470 -0.7843142
-1.1641291 -1.3859065 -0.5869205
-1.1773740 -1.3659965 -0.4069430
-1.1718786 -1.3670990 -0.1760496
-1.1782342 -1.3772577 0.0579070
-1.1759313 -1.3866304 0.2964258
-1.1782966 -1.3733022 0.4992579
-1.1620616 -1.4023689 0.6806364
-1.1572593 -1.2397621 -0.3670556
-1.1570145 -1.2088088 -0.1583484
-1.1578367 -1.2020531 0.0504464
-1.1587137 -1.2118722 0.2625151
-0.9924182 -2.0723901 -1.8516725
-0.8375182 -2.3539548 -0.6729540
-0.9295634 -2.2811182 -0.3612582
-0.7127746 -2.3840325 0.2872306
-0.6317090 -2.3949430 0.5699168
-0.8118041 -2.0423195 0.7022006
-1.1956885 -2.0422251 -2.3069692
-0.7030157 -2.3357449 -0.9791740
-0.7136946 -2.4094634 -0.6616009
-0.8820305 -2.4336748 -0.2482594
-0.9259039 -2.4254935 0.0819652
-0.8667450 -2.4229515 0.6154359
-0.9127441 -2.3919718 1.1339455
-0.9799807 -2.3759418 1.3005461
-0.9749601 -2.1554523 1.9882022
-1.0035340 -2.3711600 -1.8533620
-0.9743598 -2.4065359 -1.1591179
-1.0463253 -2.2944853 -0.9868589
-1.0183800 -2.3891482 -0.5603237
-1.0415106 -2.2428498 -0.1660267
-0.9113926 -2.3246679 -0.0025425
-1.0045023 -2.3853548 0.3023148
-0.9792856 -2.3859334 0.6399794
-0.9115596 -2.4128122 0.9384908
-0.7499754 -2.2956285 1.5185754
-0.9551709 -2.4218040 -1.6129802
-0.9054554 -2.3670001 -1.2420096
-0.8621782 -2.2966125 -0.8263124
-0.8897925 -2.1997294 -0.5593088
-0.8333752 -2.1906691 -0.2676100
-0.9590375 -2.1944602 0.1247209
-0.9127315 -2.2389574 0.4052354
-0.9229404 -2.2361357 0.6263397
-0.9917229 -2.3404543 0.9728896
-0.8268725 -2.3521218 1.2832527
-0.9580529 -2.4212666 1.7235794
-0.8957890 -2.2028651 -1.3742270
-0.9390575 -2.2391469 -1.0334722
-0.9411627 -2.1954060 -0.8033188
-0.9881971 -2.0541472 -0.4815875
-0.9398970 -2.0805337 -0.2322499
-0.9388426 -2.0811276 0.0364609
-0.9721085 -2.1337786 0.2858121
-0.9595659 -2.1148615 0.5645039
-0.9584028 -2.2289104 0.8370312
-0.9772816 -2.1635334 1.2018315
-0.9689926 -2.3553295 1.5999029
-0.9267986 -2.1809187 -1.3205918
-0.9466540 -2.0422831 -1.0458049
-0.9261562 -2.0170200 -0.7306905
-0.9393535 -1.9988573 -0.4725253
-0.9226000 -1.9385172 -0.1959593
-0.9429953 -1.9686322 0.0593003
-0.9285673 -1.9605926 0.3421490
-0.9308669 -1.9786450 0.5692205
-0.9738706 -2.0467870 0.8518086
-0.9046831 -2.0307748 1.0856355
-0.9587827 -2.1343293 1.4100494
-0.9389042 -2.0024118 -1.1703057
-0.9413753 -1.9110214 -0.9198743
-0.9241599 -1.8662981 -0.7118527
-0.9436868 -1.8187582 -0.4354113
-0.9409128 -1.8252414 -0.1778642
-0.9377596 -1.8314698 0.0596115
-0.9554164 -1.8428798 0.3040563
-0.9451520 -1.8317448 0.5445376
-0.9640164 -1.8818733 0.7916847
-0.9321117 -1.9006991 1.0223132
-0.9447929 -2.0086558 1.2670436
-0.9503125 -1.8318832 -1.0764261
-0.9526193 -1.7210149 -0.8962345
-0.9397765 -1.7565076 -0.6452729
-0.9437408 -1.6890073 -0.4260145
-0.9366283 -1.6776201 -0.1905307
-0.9327882 -1.6793977 0.0659648
-0.9309050 -1.6830672 0.2942265
-0.9265188 -1.6962686 0.5354139
-0.9375698 -1.7643006 0.7594964
-0.9448918 -1.7155932 1.0020695
-0.9504350 -1.8198067 1.1682694
-0.9466901 -1.5969193 -0.8625317
-0.9303376 -1.5590900 -0.6379184
-0.9431190 -1.5458983 -0.3955527
-0.9305921 -1.5157453 -0.1763116
-0.9449120 -1.5417734 0.0552900
-0.9543200 -1.5322976 0.2876353
-0.9412606 -1.5356915 0.5159583
-0.9367852 -1.5378135 0.7518888
-0.9450154 -1.5998085 0.9329174
-0.9484106 -1.4475269 -0.7867699
-0.9451388 -1.3751817 -0.6011881
-0.9493420 -1.3505484 -0.4042056
-0.9432017 -1.3737293 -0.1821804
-0.9432645 -1.3392998 0.0552243
-0.9367740 -1.3729554 0.2891656
-0.9448894 -1.3618953 0.5127298
-0.9452295 -1.4169264 0.7032381
-0.9501578 -1.2310035 -0.3677991
-0.9484633 -1.2024786 -0.1596061
-0.9490030 -1.1899519 0.0513476
-0.9457959 -1.2068123 0.2596813
-0.9490566 -1.2296363 0.4657409
-0.1567253 -2.4120371 -0.9374315
-0.5725952 -2.3498950 -0.5667824
-0.4868498 -2.3970349 -0.5029582
-0.3750446 -2.2839499 0.3143834
-0.4756917 -2.3496907 0.5748656
-0.5105951 -2.3631375 1.2598416
-0.4193166 -2.1830275 -2.4254038
-0.3503897 -2.3143818 -1.2149320
-0.5091092 -2.3694432 -0.8287537
-0.5710822 -2.4134467 -0.1552852
-0.3345843 -2.4142070 0.0959737
-0.5868989 -2.4092689 0.3426851
-0.5875028 -2.3770630 0.9653387
0.0896383 -2.2853310 2.3046989
-0.5645489 -1.9902500 -1.4408135
-0.6956999 -2.4118519 -1.2869703
-0.7234055 -2.4189572 -1.0187184
-0.7451823 -2.3743551 -0.4035578
-0.7016528 -2.3340101 -0.1589768
-0.7066423 -2.3865573 0.0226168
-0.7624640 -2.2910857 0.2517960
-0.5990040 -2.3917952 0.7239768
-0.8258369 -2.1892681 0.9020496
-0.2738596 -2.2395782 1.7615856
-0.6770952 -2.4408851 -1.5903509
-0.5115562 -2.4226396 -1.1736585
-0.5445294 -2.1825111 -0.9093056
-0.6196855 -2.1787317 -0.4552604
-0.5621309 -2.2434175 -0.2302644
-0.6221032 -2.2345166 0.0793847
-0.6080053 -2.2237778 0.3657228
-0.5648021 -2.2557712 0.6853183
-0.6880435 -2.3514230 0.9768769
-0.5609614 -2.3479846 1.3209779
-0.5905896 -2.3368807 1.6195027
-0.7387362 -2.2750282 -1.3787190
-0.6897010 -2.2130682 -1.0846282
-0.7103148 -2.1899045 -0.7602299
-0.6602699 -2.1167395 -0.5132790
-0.7042390 -2.0637789 -0.1648398
-0.7335993 -2.1352398 0.0389420
-0.7016690 -2.0535710 0.2724936
-0.6838984 -2.1631043 0.5612148
-0.6276428 -2.1694529 0.9013735
-0.6061982 -2.2470365 1.2437228
-0.6701627 -2.3887861 1.5120457
-0.7369709 -2.1957562 -1.2939650
-0.6716259 -2.0685441 -0.9540196
-0.6758100 -2.0659494 -0.7133414
-0.6652711 -1.9527614 -0.4446144
-0.6409026 -2.0038199 -0.1960587
-0.6775362 -1.9902894 0.0571010
-0.6868130 -2.0034702 0.3392876
-0.6330531 -2.0051246 0.5688945
-0.6614045 -2.0234687 0.8425391
-0.6585917 -2.0475826 1.0768369
-0.7265844 -2.1270342 1.3410779
-0.7410880 -1.9977505 -1.1678066
-0.7048688 -1.8939383 -0.8950099
-0.7118878 -1.9085406 -0.6766667
-0.6903254 -1.8626899 -0.4475507
-0.6967922 -1.8347342 -0.1728530
-0.6964120 -1.8439369 0.0456084
-0.7224884 -1.8410438 0.2799697
-0.7014138 -1.8474958 0.5589982
-0.7026922 -1.9058559 0.7856682
-0.6410581 -1.9242941 1.0691937
-0.7145806 -2.0175333 1.1985531
-0.7364687 -1.8323964 -1.0696826
-0.7078958 -1.7325548 -0.8714166
-0.7065258 -1.7484329 -0.6456652
-0.7078477 -1.6984512 -0.4162059
-0.6897023 -1.6979603 -0.1889432
-0.7204756 -1.7052187 0.0608416
-0.7024144 -1.6913663 0.3038863
-0.7002427 -1.7179841 0.5190375
-0.6928727 -1.7383853 0.7511899
-0.6786110 -1.7748638 0.9762108
-0.7261454 -1.6035079 -0.8307989
-0.6989610 -1.5689251 -0.6395304
-0.7124531 -1.5509827 -0.4026482
-0.7237439 -1.5454835 -0.1636961
-0.7069155 -1.5253752 0.0545672
-0.7194266 -1.5376749 0.2769877
-0.7056165 -1.5648742 0.5104867
-0.6944826 -1.5642402 0.7506239
-0.7254722 -1.6393716 0.9290710
-0.7297838 -1.4091383 -0.5884128
-0.7138424 -1.3794663 -0.4021693
-0.7054670 -1.3734273 -0.1733342
-0.7113270 -1.3921649 0.0626863
-0.7054276 -1.3725584 0.2912878
-0.7083642 -1.3845507 0.4882181
-0.7343087 -1.4159545 0.6830933
-0.7407371 -1.2397963 -0.3652433
-0.7367312 -1.2150626 -0.1577661
-0.7406436 -1.2079879 0.0528320
-0.7376570 -1.2271866 0.2627065
-0.0239150 -2.3554020 -0.6803744
0.3908823 -2.2550659 -0.3144820
-0.3091478 -2.1061597 0.1631137
0.2453954 -2.3123155 0.4571023
0.6821976 -1.9967937 1.6599146
0.5296528 -1.8057069 -2.0195670
-0.3190230 -2.3477423 -0.5762182
-0.1803670 -2.3806734 -0.1743080
0.0234630 -2.3746276 0.0357362
-0.2947580 -2.4150186 0.4851996
-0.1216235 -2.2787886 0.9130750
-0.3417314 -1.9577855 2.0784326
-0.0184072 -2.4264283 -1.6058360
-0.4128266 -2.4064727 -0.9371121
-0.0842093 -2.4116991 -0.5258178
-0.3758965 -2.3775241 -0.2407791
-0.4941543 -2.3986332 0.0458505
-0.2281967 -2.3831050 0.3943558
-0.2536777 -2.4080391 0.8016641
-0.3462458 -2.3165982 1.1317396
-0.1344372 -2.2481267 1.6049581
-0.3348177 -2.4267051 -1.6602476
-0.1490026 -2.3751066 -1.3129113
-0.2483402 -2.2853186 -0.9110547
-0.2833683 -2.2427983 -0.5844666
-0.3069276 -2.2428055 -0.2519762
-0.4273533 -2.2554049 0.0444253
-0.3837246 -2.2396781 0.4912896
-0.2470290 -2.3484385 0.8022964
-0.3485553 -2.4161894 0.9640630
-0.2049830 -2.3782763 1.5201474
-0.4224465 -2.2438815 -1.3394635
-0.3232618 -2.2953846 -1.1131791
-0.4357351 -2.2321544 -0.7684931
-0.4259130 -2.2170510 -0.4680247
-0.4140814 -2.1178229 -0.2315752
-0.4592462 -2.1048880 -0.0053946
-0.4332528 -2.1005869 0.3345903
-0.3076772 -2.1226747 0.7035277
-0.3895952 -2.2302167 0.9389064
-0.2389210 -2.2499015 1.2560842
-0.4883550 -2.1586063 -1.2058324
-0.3481159 -2.0708575 -0.9876758
-0.4298502 -2.0716391 -0.7078778
-0.3859764 -2.0158725 -0.4801542
-0.4100124 -1.9855638 -0.2376460
-0.4258597 -1.9564570 0.0748378
-0.4261154 -2.0093870 0.3463510
-0.3920226 -2.0127773 0.6177099
-0.4224527 -2.1184063 0.8491048
-0.3802837 -2.0840294 1.0783981
-0.4713717 -2.1342018 1.2946044
-0.4997065 -2.0120687 -1.1162549
-0.4196981 -1.9461788 -0.9355746
-0.4776652 -1.9468622 -0.6657982
-0.4352299 -1.9205180 -0.4545234
-0.4526639 -1.8485268 -0.1886508
-0.4644831 -1.8363853 0.0487502
-0.4419269 -1.8393291 0.3069468
-0.4361169 -1.8988187 0.5676969
-0.4278786 -1.9245541 0.7934712
-0.4529828 -1.9480344 1.0379045
-0.5197015 -1.8454478 -1.0199894
-0.4719360 -1.7690550 -0.8634936
-0.4725325 -1.7472724 -0.6477645
-0.4818247 -1.7085416 -0.4049693
-0.4764418 -1.7153447 -0.1970929
-0.4477217 -1.6875532 0.0564855
-0.4822026 -1.7175429 0.3057760
-0.4798197 -1.7269044 0.5299754
-0.4551037 -1.7326392 0.7891250
-0.5063942 -1.8136282 0.9475558
-0.5231285 -1.6317043 -0.8049923
-0.4889290 -1.5807109 -0.6412243
-0.4924479 -1.5823668 -0.4095502
-0.4891172 -1.5604422 -0.1612051
-0.4969823 -1.5377353 0.0592758
-0.4854300 -1.5478199 0.2894131
-0.4717753 -1.5423247 0.5314788
-0.4865650 -1.6107717 0.7182046
-0.5338871 -1.4274131 -0.5830683
-0.5167058 -1.3766152 -0.3728619
-0.4998750 -1.3677015 -0.1778023
-0.4912751 -1.3685565 0.0571849
-0.5099434 -1.3843453 0.2907167
-0.5217794 -1.4148244 0.4787042
-0.5347429 -1.2274804 0.0506692
0.3894877 -1.7608145 -1.4865521
0.9533007 -1.8359286 -0.9462211
0.4207003 -2.1488237 -1.0327507
0.2587593 -2.4394557 0.0529755
1.2622428 -2.3784902 1.2524340
1.0298207 -1.9494561 0.6489250
-0.1387652 -2.0964630 -1.3042165
0.4840721 -2.4477913 -1.4067500
0.1161124 -2.3309278 -0.2480283
-0.1321146 -2.4283404 -0.2964425
-0.0598227 -2.3992732 0.1126328
-0.1671975 -2.2221920 0.2192218
0.0434031 -2.3666728 0.6474429
0.2628060 -2.1430893 1.2454618
0.0571754 -2.3879378 -1.3390230
0.1389140 -2.3848109 -0.8843904
0.0879945 -2.3794184 -0.5117917
0.0483734 -2.2529404 -0.2178890
0.0557260 -2.2498429 -0.0189689
0.0049210 -2.4174445 0.3551851
-0.0070934 -2.3855793 0.6185917
0.1050535 -2.3065085 1.0975050
-0.0928337 -2.3131108 1.3121740
-0.1078594 -2.2701628 -1.1637248
-0.1640101 -2.2676244 -0.7578279
-0.0683694 -2.1905339 -0.4518814
-0.2156706 -2.2611716 -0.1073575
-0.1641600 -2.2099171 0.0521274
-0.0484939 -2.1931438 0.3744272
-0.0797672 -2.2484157 0.5916512
-0.0155562 -2.2854645 1.0058415
-0.1398651 -2.3550055 1.1657907
-0.1845566 -2.1204624 -0.9472885
-0.1776623 -2.0801864 -0.7203355
-0.1420934 -2.0826824 -0.4073257
-0.1547042 -2.0333118 -0.2050369
-0.1396569 -2.0662837 0.0099249
-0.1566454 -2.0326455 0.3274488
-0.1555694 -2.1155877 0.5814237
-0.1684929 -2.0810602 0.8315286
-0.2206339 -2.1405904 1.0703415
-0.2285758 -2.0027580 -0.9077328
-0.1986977 -1.9461266 -0.6836129
-0.2136474 -1.9443114 -0.4331039
-0.2048418 -1.9376224 -0.1738322
-0.2269542 -1.8755907 0.0584631
-0.2072806 -1.9129238 0.2946931
-0.2063905 -1.9506958 0.5622991
-0.1872889 -1.9103214 0.8057144
-0.2774541 -1.9935747 0.9783195
-0.2876748 -1.8174148 -0.8136563
-0.2516189 -1.7572545 -0.6483417
-0.2472304 -1.7646360 -0.4204508
-0.2385521 -1.7399068 -0.1709079
-0.2397501 -1.7616085 0.0531595
-0.2375268 -1.7452253 0.3008743
-0.2139525 -1.7283244 0.5444658
-0.2700736 -1.7852182 0.7323124
-0.2920674 -1.6377392 -0.6004609
-0.2542954 -1.5809276 -0.4008335
-0.2475483 -1.5724944 -0.1766179
-0.2485112 -1.5521572 0.0643552
-0.2482376 -1.5667653 0.3020527
-0.2754253 -1.6084986 0.5038268
-0.3170927 -1.6521415 0.6785128
-0.3139366 -1.4363947 -0.3652500
-0.3150493 -1.4092356 -0.1649712
-0.2969456 -1.4157602 0.0560935
-0.3129881 -1.4302218 0.2692108
0.7929989 -2.2750418 -0.6336234
0.8919885 -2.2410989 0.0233352
0.5560772 -2.2620983 -1.1470120
0.9364364 -2.0498896 -0.3551269
0.5127051 -2.2745399 0.2232071
0.8268190 -2.3608592 0.6509980
0.5481518 -2.0200863 0.6058980
0.5856021 -2.3846395 -0.9721400
0.3423818 -2.3468559 -0.3468099
0.3238539 -2.1612682 -0.3844246
0.2255013 -2.3634686 0.1797095
0.3590651 -2.4452713 0.5436884
0.4452313 -2.2408259 0.7550923
0.2721373 -2.3761783 0.9351013
0.0922747 -2.2910337 -1.0157585
0.1913876 -2.2023127 -0.7801579
0.2474936 -2.3353064 -0.6727096
0.1948088 -2.2869332 -0.1851705
0.2332609 -2.1414382 0.0813589
0.2171911 -2.2034733 0.3890459
0.2447088 -2.3356404 0.7460276
0.1875511 -2.4120207 0.8217892
-0.0018677 -2.1443596 -0.8953046
0.0824405 -2.1653831 -0.6786017
0.0531072 -2.0949137 -0.5300850
0.0346478 -2.0276582 -0.1973465
0.0659214 -1.9808649 0.0561860
0.0558577 -2.0302410 0.3324834
0.1004671 -2.0679123 0.6175534
0.0690120 -2.1500332 0.7966996
0.0005087 -1.9912226 -0.6606465
0.0325603 -1.9309901 -0.4520895
0.0416524 -1.9176637 -0.2264302
0.0387079 -1.9110692 0.0755626
0.0722009 -1.9111199 0.3636345
0.0184529 -1.9428532 0.5474497
-0.0301768 -1.9911113 0.7228453
-0.0825500 -1.8254638 -0.5978704
-0.0330804 -1.7813187 -0.3854856
-0.0258361 -1.7426577 -0.1900285
-0.0149452 -1.7016859 0.0550012
-0.0315860 -1.7582904 0.3136066
-0.0560182 -1.8044530 0.4986296
-0.0959443 -1.6448317 -0.3654842
-0.0690067 -1.6461101 -0.1694316
-0.0655295 -1.6166608 0.0548645
-0.0851988 -1.6370959 0.2742724
0.6329194 -2.3870206 -0.2074960
0.7616903 -2.3874323 -0.0395629
0.6824125 -2.3743610 0.5182256
0.4870898 -2.3924718 -0.4639674
0.4900522 -2.4394474 -0.1476541
0.6092314 -2.3001158 -0.0628129
0.5321813 -2.2739899 0.3828820
0.3092340 -2.1231432 -0.4638497
0.3500813 -2.1347404 -0.1291272
0.4309952 -2.1150372 0.0266088
0.3638032 -2.1374102 0.2993047
0.3263676 -2.1768005 0.5175905
0.1915902 -1.9876844 -0.3857552
0.2317872 -2.0189331 -0.1600775
0.2749552 -2.0124030 0.0551273
0.2051631 -2.0301361 0.2890382
0.1615469 -1.8062348 0.0482160
